<?xml version="1.0" standalone="no"?>
<!DOCTYPE svg PUBLIC "-//W3C//DTD SVG 20010904//EN"
 "http://www.w3.org/TR/2001/REC-SVG-20010904/DTD/svg10.dtd">
<svg version="1.0" xmlns="http://www.w3.org/2000/svg"
 width="16.000000pt" height="16.000000pt" viewBox="0 0 16.000000 16.000000"
 preserveAspectRatio="xMidYMid meet">
<metadata>
Created by potrace 1.11, written by Peter Selinger 2001-2013
</metadata>
<g transform="translate(0.000000,16.000000) scale(0.020000,-0.020000)"
fill="#000000" stroke="none">
<path d="M273 765 c-64 -23 -120 -59 -161 -104 -32 -36 -82 -123 -76 -133 3
-4 1 -8 -4 -8 -11 0 -11 -5 -17 -103 -4 -82 2 -110 41 -194 42 -88 147 -174
244 -200 38 -10 182 -9 205 1 11 5 26 10 33 12 28 6 105 58 143 97 36 38 88
126 93 159 1 7 4 18 7 23 10 17 8 145 -3 178 -23 71 -61 137 -104 181 -44 43
-142 101 -174 101 -8 0 -19 3 -25 7 -24 15 -142 5 -202 -17z m252 -89 c109
-50 178 -156 178 -275 1 -221 -227 -369 -428 -277 -153 70 -221 249 -152 399
71 156 249 224 402 153z"/>
<path d="M366 628 c-3 -13 -4 -76 -4 -141 1 -87 5 -120 15 -129 9 -7 54 -11
126 -10 94 1 114 4 124 19 25 33 -6 46 -107 46 -76 0 -90 2 -91 16 0 9 0 54 0
101 0 106 -4 120 -34 120 -18 0 -26 -7 -29 -22z"/>
</g>
</svg>
